<?xml version="1.0"?>
<svg width="226.8" height="187.6" xmlns="http://www.w3.org/2000/svg" xmlns:svg="http://www.w3.org/2000/svg">
 <g class="layer">
  <title>Layer 1</title>
  <g data-name="Layer 2" id="Layer_2">
   <g data-name="Слой 1" id="Слой_1">
    <path d="m58.6,86.4c0,1.3 -0.1,2.7 -0.2,4.2a24.2,24.2 0 0 1 -0.7,4.7a25.2,25.2 0 0 1 -1.3,4.7a13.3,13.3 0 0 1 -2.1,3.9a10.6,10.6 0 0 1 -3.2,2.8a9.4,9.4 0 0 1 -4.5,1.1l-3.3,0a27.1,27.1 0 0 0 -4.7,-0.4l-5.2,0l4.2,-1.9l0,-38.7l-4.2,-1.8l0,-0.2l10.7,0c3.1,0 5.6,0.6 7.5,2a13.6,13.6 0 0 1 4.4,5.1a21.3,21.3 0 0 1 2,6.9a49.6,49.6 0 0 1 0.6,7.6zm-11.8,20.4c2.7,0 4.7,-1.8 5.8,-5.2a32.6,32.6 0 0 0 1.3,-6.1a72,72 0 0 0 0.4,-8.6c0,-1.4 0,-2.9 -0.1,-4.8a34.1,34.1 0 0 0 -0.5,-5.5a29.3,29.3 0 0 0 -1.3,-5.3a7.7,7.7 0 0 0 -2.4,-3.9a4.3,4.3 0 0 0 -2.6,-1.3a19,19 0 0 0 -3.5,-0.3l-2.5,0l0,35.8a4.9,4.9 0 0 0 1.5,3.8a5.8,5.8 0 0 0 3.9,1.4z" fill="#143642" id="svg_1"/>
    <path d="m62.2,86.1a24.3,24.3 0 0 1 1.5,-8.6a22,22 0 0 1 4.2,-6.9a19.4,19.4 0 0 1 6.6,-4.7a19,19 0 0 1 8.3,-1.7a20,20 0 0 1 8.6,1.7a20.4,20.4 0 0 1 6.6,4.7a20,20 0 0 1 4.2,6.9a23.2,23.2 0 0 1 1.5,8.4a25,25 0 0 1 -1.5,8.8a20.1,20.1 0 0 1 -10.9,11.5a21.1,21.1 0 0 1 -8.5,1.6a19.1,19.1 0 0 1 -8.4,-1.7a20.7,20.7 0 0 1 -6.5,-4.8a22,22 0 0 1 -4.2,-6.9a23.4,23.4 0 0 1 -1.5,-8.3zm5.7,7.3a30.8,30.8 0 0 0 3.2,4.8a24.6,24.6 0 0 0 4.1,3.8a18.9,18.9 0 0 0 4.9,2.5a18.1,18.1 0 0 0 5.8,0.9a14.3,14.3 0 0 0 6,-1.2a12.5,12.5 0 0 0 4.5,-3.3a16.9,16.9 0 0 0 2.8,-4.9a19.8,19.8 0 0 0 0.9,-6a28.8,28.8 0 0 0 -0.6,-5.9a27.3,27.3 0 0 0 -1.9,-5.7a30.1,30.1 0 0 0 -3.2,-5a16.4,16.4 0 0 0 -4.3,-4a13.2,13.2 0 0 0 -4.7,-2.2a21.2,21.2 0 0 0 -5.2,-0.6a17,17 0 0 0 -6.1,1.1a13.6,13.6 0 0 0 -4.6,3.2a16.6,16.6 0 0 0 -2.9,4.8a19.9,19.9 0 0 0 -1,6a38.6,38.6 0 0 0 0.5,6.1a21.4,21.4 0 0 0 1.8,5.6z" fill="#143642" id="svg_2"/>
    <path d="m114.1,66.8l0,35.8c0,2.4 1,3.6 3.1,3.6l3,0a2.8,2.8 0 0 0 2.1,-0.7a5.2,5.2 0 0 0 1.3,-2.4l4.2,-11.6l0.1,0l-1.6,16.3l-3.5,-0.6l-16.7,0l4.2,-1.9l0,-38.5l-4.2,-1.8l0,-0.2l12.2,0l0,0.2l-4.2,1.8z" fill="#143642" id="svg_3"/>
    <path d="m150.4,64.2a21.7,21.7 0 0 1 8.4,1.5a37.2,37.2 0 0 1 8.6,5.8l0,13.8l-0.2,0a47.4,47.4 0 0 0 -2.7,-8.9a16.2,16.2 0 0 0 -4,-5.8a15.5,15.5 0 0 0 -11.1,-4.7a14.5,14.5 0 0 0 -13,7.6a17.7,17.7 0 0 0 -2.2,9.2a28.4,28.4 0 0 0 0.5,5.8a23.7,23.7 0 0 0 1.8,5.5a20.7,20.7 0 0 0 3.1,4.8a16.2,16.2 0 0 0 4.5,3.6a26.5,26.5 0 0 0 4.7,2a19.8,19.8 0 0 0 5.2,0.7a16.7,16.7 0 0 0 7.6,-1.6a16.1,16.1 0 0 0 5.8,-5.1l0.8,0a20.4,20.4 0 0 1 -3.1,4a16.8,16.8 0 0 1 -4,3a18.3,18.3 0 0 1 -4.6,1.8a22.8,22.8 0 0 1 -13.6,-1a19.6,19.6 0 0 1 -6.6,-4.6a22,22 0 0 1 -4.2,-6.9a23.7,23.7 0 0 1 -1.5,-8.5a23.4,23.4 0 0 1 1.5,-8.3a20.3,20.3 0 0 1 4,-7a19.8,19.8 0 0 1 6.2,-4.9a17.9,17.9 0 0 1 8.1,-1.8z" fill="#143642" id="svg_4"/>
    <path d="m192.6,76.6l-0.2,0l-4,-7.9a7.6,7.6 0 0 0 -0.7,-1.3a2.4,2.4 0 0 0 -0.8,-0.9a3.1,3.1 0 0 0 -1,-0.5l-1.6,-0.2l-5.8,0l0,18.8l5.3,0a5.3,5.3 0 0 0 2.8,-0.6a11.1,11.1 0 0 0 1.9,-2.2l1.2,-2.7l0.2,0l0,12.1l-0.2,0l-1.2,-2.7a6.8,6.8 0 0 0 -2,-2.1a4.1,4.1 0 0 0 -2.7,-0.7l-5.3,0l0,16.7a5.3,5.3 0 0 0 0.5,2.6a2.2,2.2 0 0 0 2.2,1.2l3.8,0a3.4,3.4 0 0 0 2.5,-0.8a8.2,8.2 0 0 0 1.3,-2.3l4.3,-10l0.2,0l-1.9,14.6l-3.9,-0.6l-17,0l4.2,-1.9l0,-38.4l-4.2,-1.8l0,-0.2l16.6,0l3.9,-0.6l1.6,12.4z" fill="#143642" id="svg_5"/>
    <path d="m26.9,153.9l13.8,-24.2a9.3,9.3 0 0 0 1.7,-4.2a1.7,1.7 0 0 0 -0.8,-1.6l-3.1,-1.2l0,-0.2l12.4,0c3.8,0 6.6,1.1 8.3,3.2s2.6,5 2.6,8.7a13.1,13.1 0 0 1 -1.5,6.1a9.6,9.6 0 0 1 -4.6,4.3a23.5,23.5 0 0 1 1,2.7c0.4,1.2 0.8,2.4 1.4,3.9s1.1,2.8 1.7,4.4a40.8,40.8 0 0 0 1.9,4.2a27.2,27.2 0 0 0 2,3.5a6.5,6.5 0 0 0 1.8,2.1l0,0.2a12.8,12.8 0 0 1 -3.1,-1.5a17,17 0 0 1 -2.4,-2.2a16.4,16.4 0 0 1 -2,-2.6l-1.7,-3c-1.2,-2.6 -2.7,-6.1 -4.4,-10.5a8,8 0 0 1 -3,-0.6a6,6 0 0 1 -2.3,-1.9l0,20l5.3,1.3l0,0.2l-13.4,0l0,-0.2l4.2,-1.3l0,-11.7l-13.4,0l-1.1,1.9a12.8,12.8 0 0 0 -2,5.9a6,6 0 0 0 0.7,3a6.2,6.2 0 0 0 2.9,2.1l0,0.3l-12,0l0,-0.3a23.1,23.1 0 0 0 5.1,-4.8a48.1,48.1 0 0 0 4,-6zm15.8,-25.7l-12.9,22.6l12.9,0l0,-22.6zm9,16.8a4.8,4.8 0 0 0 4.4,-2.9l0.7,-1.4a7.5,7.5 0 0 0 0.5,-1.6a5.8,5.8 0 0 0 0.3,-1.9a15.5,15.5 0 0 0 0.1,-2.3c0,-7.6 -2.2,-11.3 -6.7,-11.3l-4.5,0l0,13.7a12.3,12.3 0 0 0 0.2,2.7a10.3,10.3 0 0 0 0.7,2.5a5.8,5.8 0 0 0 1.7,1.8a4,4 0 0 0 2.6,0.7z" fill="#143642" id="svg_6"/>
    <path d="m82.8,127.1l-0.2,0l0,27.6a20.6,20.6 0 0 0 0.3,3.9a8.4,8.4 0 0 0 1.1,2.7a6.7,6.7 0 0 0 2.2,1.9a28.4,28.4 0 0 0 3.4,1.5l0,0.3l-12,0l0,-0.3a9.4,9.4 0 0 0 3.1,-4.1a13.6,13.6 0 0 0 0.9,-5.1l0,-31.5l-4.6,-1.3l0,-0.2l7.5,0l15.4,32.6l0.3,0l0,-22.3a22.5,22.5 0 0 0 -0.3,-4a6.8,6.8 0 0 0 -1.1,-2.6a5.5,5.5 0 0 0 -2.1,-1.9a24.4,24.4 0 0 0 -3.5,-1.5l0,-0.3l12,0l0,0.3a9.9,9.9 0 0 0 -3,4.1a11.9,11.9 0 0 0 -1,5.1l0,33.6l-0.4,0l-18,-38.5z" fill="#143642" id="svg_7"/>
    <path d="m116.2,124l0,39.5l4.2,1.3l0,0.2l-12.2,0l0,-0.2l4.2,-1.3l0,-39.5l-4.2,-1.3l0,-0.2l12.2,0l0,0.2l-4.2,1.3z" fill="#143642" id="svg_8"/>
    <path d="m145.1,134.3l-0.1,0l-4,-8l-0.8,-1.3l-0.7,-0.9l-1.1,-0.5l-7.4,0l0,18.8l5.4,0a4.1,4.1 0 0 0 2.7,-0.7a8,8 0 0 0 1.9,-2.1l1.3,-2.8l0.1,0l0,12.2l-0.1,0l-1.3,-2.8a7.8,7.8 0 0 0 -1.9,-2.1a4.5,4.5 0 0 0 -2.7,-0.7l-5.4,0l0,16.8a7.5,7.5 0 0 0 0.5,2.6a2.3,2.3 0 0 0 2.3,1.2l3.8,0a3,3 0 0 0 2.4,-0.9a5.6,5.6 0 0 0 1.3,-2.3l4.3,-9.9l0.3,0l-2,14.6l-3.9,-0.5l-17,0l0,-0.2l4.2,-1.9l0,-38.3l-4.2,-1.9l0,-0.2l16.6,0l3.9,-0.5l1.6,12.3z" fill="#143642" id="svg_9"/>
    <path d="m154.6,127.1l-0.1,0l0,27.6a20.6,20.6 0 0 0 0.3,3.9a6.7,6.7 0 0 0 1.1,2.7a5.5,5.5 0 0 0 2.1,1.9a24.4,24.4 0 0 0 3.5,1.5l0,0.3l-12.1,0l0,-0.3a9.4,9.4 0 0 0 3.1,-4.1a13.6,13.6 0 0 0 0.9,-5.1l0,-31.5l-4.5,-1.3l0,-0.2l7.4,0l15.5,32.6l0.2,0l0,-22.3a21.5,21.5 0 0 0 -0.4,-4a6.7,6.7 0 0 0 -1,-2.6a5.9,5.9 0 0 0 -2.2,-1.9a20.3,20.3 0 0 0 -3.5,-1.5l0,-0.3l12.1,0l0,0.3a10.2,10.2 0 0 0 -3.1,4.1a13.6,13.6 0 0 0 -0.9,5.1l0,33.6l-0.5,0l-17.9,-38.5z" fill="#143642" id="svg_10"/>
    <path d="m226.5,150.9l-4.3,9.9a5.6,5.6 0 0 1 -1.3,2.3a3,3 0 0 1 -2.4,0.9l-3.8,0a2.3,2.3 0 0 1 -2.3,-1.2a7.5,7.5 0 0 1 -0.5,-2.6l0,-16.8l5.4,0a4.5,4.5 0 0 1 2.7,0.7a7.8,7.8 0 0 1 1.9,2.1l1.3,2.8l0.1,0l0,-12.2l-0.1,0l-1.3,2.8a8,8 0 0 1 -1.9,2.1a4.1,4.1 0 0 1 -2.7,0.7l-5.4,0l0,-18.8l7.4,0l1,0.5a3.4,3.4 0 0 1 0.8,0.9c0.2,0.4 0.5,0.8 0.7,1.3l4.1,8l0.1,0l-1.6,-12.3l-3.9,0.5l-37,0l-3.6,-0.5l-1.2,15.1l0.2,0l3.8,-10.8a4.7,4.7 0 0 1 1,-2a2.2,2.2 0 0 1 1.9,-0.7l6,0l0,39.9l-4.2,1.3l0,0.2l12.2,0l0,-0.2l-4.2,-1.3l0,-39.9l8,0c2.9,0 4.7,5.6 4.7,13.5l0,0l0,25.8l-4.2,1.9l0,0.2l17,0l3.9,0.5l2,-14.6l-0.3,0z" fill="#143642" id="svg_11"/>
    <path d="m13.3,143.9a4.8,4.8 0 0 0 2.7,-0.7a7,7 0 0 0 1.9,-2.2l1.3,-2.7l0.2,0l0,12.1l-0.2,0l-1.3,-2.7a7.8,7.8 0 0 0 -1.9,-2.1a4.5,4.5 0 0 0 -2.7,-0.7l-5.3,0l0,18l5.4,1.9l0,0.2l-13.4,0l0,-0.2l4.2,-1.9l0,-38.3l-4.2,-1.9l0,-0.2l16.6,0l3.9,-0.5l1.7,12.3l-0.2,0l-4,-8l-0.7,-1.3l-0.8,-0.9a3.1,3.1 0 0 0 -1,-0.5l-7.5,0l0,20.3l5.3,0z" fill="#143642" id="svg_12"/>
    <path d="m113.4,45.5a20.8,20.8 0 1 1 20.7,-20.8a20.8,20.8 0 0 1 -20.7,20.8zm0,-40.8a20.1,20.1 0 1 0 20,20a20.1,20.1 0 0 0 -20,-20z" fill="#143642" id="svg_13"/>
    <path d="m118.5,44.6l-0.7,0l0,-8.7c0,-7.5 -2.5,-11.4 -4.7,-14a10.8,10.8 0 0 0 -8.5,-4a10.4,10.4 0 0 0 -10.4,10.4a9.6,9.6 0 0 0 0.7,4l-0.7,0.3a11.1,11.1 0 0 1 -0.7,-4.3a11.1,11.1 0 0 1 11.1,-11.1a11.9,11.9 0 0 1 9.1,4.2c2,2.5 4.8,6.7 4.8,14.5l0,8.7z" fill="#143642" id="svg_14"/>
    <path d="m113.7,21.6l-0.7,0c0,-10.3 -0.9,-13.4 -3.3,-16.8l0.6,-0.4c2.4,3.6 3.4,6.7 3.4,17.2z" fill="#143642" id="svg_15"/>
    <path d="m113.7,21.6l-0.7,0c0,-8 -7.6,-12.9 -10.8,-13.6l0.2,-0.7c3.3,0.7 11.3,5.9 11.3,14.3z" fill="#143642" id="svg_16"/>
    <path d="m113.7,21.4l-0.7,0c0,-1.9 -4.5,-7.7 -12.7,-7.7a13.5,13.5 0 0 0 -4.1,0.6l-0.2,-0.7a14.9,14.9 0 0 1 4.3,-0.6c8.8,0 13.4,6.3 13.4,8.4z" fill="#143642" id="svg_17"/>
    <path d="m109,44.6l-0.7,0l0,-8.7c0,-7.8 2.7,-12 4.8,-14.5a11.7,11.7 0 0 1 9.1,-4.2a11.1,11.1 0 0 1 11.1,11.1a11.1,11.1 0 0 1 -0.7,4.3l-0.7,-0.3a9.6,9.6 0 0 0 0.7,-4a10.4,10.4 0 0 0 -10.4,-10.4a11,11 0 0 0 -8.6,4c-2.1,2.6 -4.6,6.5 -4.6,14l0,8.7z" fill="#143642" id="svg_18"/>
    <path d="m113.7,21.6l-0.7,0c0,-10.5 1,-13.6 3.5,-17.2l0.5,0.4c-2.3,3.4 -3.3,6.5 -3.3,16.8z" fill="#143642" id="svg_19"/>
    <path d="m113.7,21.6l-0.7,0c0,-8.4 8,-13.6 11.4,-14.3l0,0.7c-3,0.7 -10.7,5.6 -10.7,13.6z" fill="#143642" id="svg_20"/>
    <path d="m113.7,21.4l-0.7,0c0,-2.1 4.6,-8.4 13.4,-8.4a15.6,15.6 0 0 1 4.4,0.6l-0.2,0.7a14.2,14.2 0 0 0 -4.2,-0.6c-8.2,0 -12.7,5.8 -12.7,7.7z" fill="#143642" id="svg_21"/>
    <path d="m113.4,49.5a24.8,24.8 0 1 1 24.7,-24.8a24.8,24.8 0 0 1 -24.7,24.8zm0,-48.1a23.4,23.4 0 1 0 23.3,23.3a23.4,23.4 0 0 0 -23.3,-23.3z" fill="#143642" id="svg_22"/>
    <path d="m118.5,44.6l-0.7,0c0,-1.5 -2.5,-2.2 -4.8,-3s-4.7,-1.5 -4.7,-3l0.7,0c0,1 2.1,1.7 4.2,2.4s5.3,1.6 5.3,3.6z" fill="#143642" id="svg_23"/>
    <path d="m118.5,39.6l-0.7,0c0,-1.4 -2.4,-2.2 -4.8,-2.9s-4.6,-1.5 -4.6,-3.1l0.7,0c0,1.1 2.1,1.8 4.1,2.4s5.3,1.7 5.3,3.6z" fill="#143642" id="svg_24"/>
    <path d="m118.4,34.7l-0.6,0c0,-1.5 -2.2,-2.2 -4.3,-3s-4.2,-1.5 -4.2,-3l0.6,0c0,1.1 2,1.7 3.8,2.4s4.7,1.6 4.7,3.6z" fill="#143642" id="svg_25"/>
    <path d="m117.1,29.8c-0.3,-1.4 -1.6,-2.2 -2.9,-2.9s-2.7,-1.6 -2.7,-3.2l0.7,0c0,1.2 1.1,1.9 2.4,2.6s2.8,1.6 3.2,3.3l-0.7,0.2z" fill="#143642" id="svg_26"/>
    <path d="m109,44.6l-0.7,0c0,-2 2.7,-2.8 5.3,-3.6s4.2,-1.4 4.2,-2.4l0.7,0c0,1.5 -2.3,2.3 -4.7,3s-4.8,1.5 -4.8,3z" fill="#143642" id="svg_27"/>
    <path d="m109,39.6l-0.7,0c0,-1.9 2.7,-2.8 5.2,-3.6s4.2,-1.3 4.2,-2.4l0.7,0c0,1.6 -2.3,2.3 -4.7,3.1s-4.7,1.5 -4.7,2.9z" fill="#143642" id="svg_28"/>
    <path d="m109,34.7l-0.7,0c0,-2 2.4,-2.8 4.8,-3.6s3.7,-1.3 3.7,-2.4l0.7,0c0,1.5 -2,2.3 -4.2,3s-4.3,1.5 -4.3,3z" fill="#143642" id="svg_29"/>
    <path d="m109.6,29.8l-0.6,-0.2c0.4,-1.7 1.9,-2.5 3.2,-3.3s2.4,-1.4 2.4,-2.6l0.7,0c0,1.6 -1.4,2.4 -2.7,3.2s-2.6,1.5 -3,2.9z" fill="#143642" id="svg_30"/>
    <path d="m58.5,187.5l-1.7,-2.7l-2.1,0l0,2.7l-1,0l0,-7.2l2.8,0c1.8,0 2.8,0.8 2.8,2.2a2.6,2.6 0 0 1 -0.5,1.5a1.5,1.5 0 0 1 -0.8,0.5l-0.2,0l1.9,2.9l-1.2,0.1zm-3.8,-3.6l1.8,0c1.2,0 1.8,-0.5 1.8,-1.4s-0.6,-1.4 -1.8,-1.4l-1.8,0l0,2.8z" fill="#143642" id="svg_31"/>
    <path d="m66.4,187.5l0,-7.2l5.5,0l0,0.8l-4.5,0l0,2.2l3.8,0l0,0.9l-3.8,0l0,2.4l4.5,0l0,0.9l-5.5,0z" fill="#143642" id="svg_32"/>
    <path d="m82.6,184.5l-2,-0.4l-0.9,-0.3a1.1,1.1 0 0 1 -0.7,-0.6a1.7,1.7 0 0 1 -0.3,-1a1.6,1.6 0 0 1 0.8,-1.5a3,3 0 0 1 2,-0.5a3.9,3.9 0 0 1 2,0.5a1.9,1.9 0 0 1 0.8,1.6l0,0.2l-1,0l0,-0.2q0,-1.2 -1.8,-1.2c-1.2,0 -1.8,0.3 -1.8,1.1s0.4,0.8 0.9,1l2,0.4a2.5,2.5 0 0 1 1.6,0.9a1.7,1.7 0 0 1 0.3,1a1.6,1.6 0 0 1 -0.8,1.5a4.3,4.3 0 0 1 -4.4,0a1.8,1.8 0 0 1 -0.8,-1.5l0,-0.4l1,0l0,0.4c0,0.8 0.6,1.2 2,1.2s2,-0.4 2,-1.2s-0.4,-0.8 -0.9,-1z" fill="#143642" id="svg_33"/>
    <path d="m90.7,181.1l0,-0.8l6.1,0l0,0.8l-2.6,0l0,6.4l-0.9,0l0,-6.4l-2.6,0z" fill="#143642" id="svg_34"/>
    <path d="m106,180.3l3,7.2l-1.1,0l-0.6,-1.6l-3.8,0l-0.7,1.6l-1,0l2.9,-7.2l1.3,0zm0.9,4.7l-1.5,-3.9l-0.1,0l-1.5,3.9l3.1,0z" fill="#143642" id="svg_35"/>
    <path d="m116.2,180.3l0,4.7a1.5,1.5 0 0 0 0.7,1.3a3,3 0 0 0 3,0a1.6,1.6 0 0 0 0.6,-1.3l0,-4.7l1,0l0,4.7a2.2,2.2 0 0 1 -0.9,1.9a3.2,3.2 0 0 1 -2.2,0.7a3.1,3.1 0 0 1 -2.2,-0.7a2.2,2.2 0 0 1 -0.9,-1.9l0,-4.7l0.9,0z" fill="#143642" id="svg_36"/>
    <path d="m133.4,187.5l-1.7,-2.7l-2.1,0l0,2.7l-1,0l0,-7.2l2.8,0c1.8,0 2.8,0.8 2.8,2.2a2.6,2.6 0 0 1 -0.5,1.5a1.5,1.5 0 0 1 -0.8,0.5l-0.2,0l1.9,2.9l-1.2,0.1zm-3.8,-3.6l1.8,0c1.2,0 1.8,-0.5 1.8,-1.4s-0.6,-1.4 -1.8,-1.4l-1.8,0l0,2.8z" fill="#143642" id="svg_37"/>
    <path d="m144.8,180.3l2.9,7.2l-1,0l-0.6,-1.6l-3.9,0l-0.6,1.6l-1,0l2.9,-7.2l1.3,0zm0.9,4.7l-1.5,-3.9l-0.1,0l-1.5,3.9l3.1,0z" fill="#143642" id="svg_38"/>
    <path d="m159,187.5l-3.8,-6.1l-0.1,0l0,6.1l-0.9,0l0,-7.2l1.4,0l3.9,6.1l0,0l0,-6.1l1,0l0,7.2l-1.5,0z" fill="#143642" id="svg_39"/>
    <path d="m166.9,181.1l0,-0.8l6.2,0l0,0.8l-2.6,0l0,6.4l-1,0l0,-6.4l-2.6,0z" fill="#143642" id="svg_40"/>
   </g>
  </g>
 </g>
</svg>