<?xml version="1.0" encoding="UTF-8" standalone="no"?>
<svg
   width="399.28824"
   height="145.79076"
   version="1.1"
   id="svg1"
   sodipodi:docname="dfn_logo_dark_horizontal.svg"
   xmlns:inkscape="http://www.inkscape.org/namespaces/inkscape"
   xmlns:sodipodi="http://sodipodi.sourceforge.net/DTD/sodipodi-0.dtd"
   xmlns="http://www.w3.org/2000/svg"
   xmlns:svg="http://www.w3.org/2000/svg">
  <defs
     id="defs1" />
  <sodipodi:namedview
     id="namedview1"
     pagecolor="#ffffff"
     bordercolor="#000000"
     borderopacity="0.25"
     inkscape:showpageshadow="2"
     inkscape:pageopacity="0.0"
     inkscape:pagecheckerboard="0"
     inkscape:deskcolor="#d1d1d1" />
  <g
     class="layer"
     id="g1"
     transform="translate(-46.297497,0.0997984)"
     style="fill:#ffffff;fill-opacity:1">
    <title
       id="title1">Layer 1</title>
    <g
       data-name="Layer 2"
       id="Layer_2"
       style="fill:#ffffff;fill-opacity:1">
      <g
         data-name="Слой 1"
         id="Слой_1"
         style="fill:#ffffff;fill-opacity:1">
        <path
           d="m 71.497497,96.520998 c 0,1.3 -0.1,2.7 -0.2,4.200002 a 24.2,24.2 0 0 1 -0.7,4.7 25.2,25.2 0 0 1 -1.3,4.7 13.3,13.3 0 0 1 -2.1,3.9 10.6,10.6 0 0 1 -3.2,2.8 9.4,9.4 0 0 1 -4.5,1.1 h -3.3 a 27.1,27.1 0 0 0 -4.7,-0.4 h -5.2 l 4.2,-1.9 V 76.921002 l -4.2,-1.8 v -0.2 h 10.7 c 3.1,0 5.6,0.6 7.5,2 a 13.6,13.6 0 0 1 4.4,5.1 21.3,21.3 0 0 1 2,6.9 49.6,49.6 0 0 1 0.6,7.599996 z m -11.8,20.400002 c 2.7,0 4.7,-1.8 5.8,-5.2 a 32.6,32.6 0 0 0 1.3,-6.1 72,72 0 0 0 0.4,-8.600002 c 0,-1.399996 0,-2.899996 -0.1,-4.799996 a 34.1,34.1 0 0 0 -0.5,-5.5 29.3,29.3 0 0 0 -1.3,-5.3 7.7,7.7 0 0 0 -2.4,-3.9 4.3,4.3 0 0 0 -2.6,-1.3 19,19 0 0 0 -3.5,-0.3 h -2.5 V 111.721 a 4.9,4.9 0 0 0 1.5,3.8 5.8,5.8 0 0 0 3.9,1.4 z"
           fill="#143642"
           id="svg_1"
           style="fill:#ffffff;fill-opacity:1" />
        <path
           d="m 75.097497,96.220998 a 24.3,24.3 0 0 1 1.5,-8.599996 22,22 0 0 1 4.2,-6.9 19.4,19.4 0 0 1 6.599996,-4.7 19,19 0 0 1 8.3,-1.7 20,20 0 0 1 8.599997,1.7 20.4,20.4 0 0 1 6.6,4.7 20,20 0 0 1 4.2,6.9 23.2,23.2 0 0 1 1.5,8.399996 25,25 0 0 1 -1.5,8.800002 20.1,20.1 0 0 1 -10.9,11.5 21.1,21.1 0 0 1 -8.499997,1.6 19.1,19.1 0 0 1 -8.4,-1.7 20.7,20.7 0 0 1 -6.499996,-4.8 22,22 0 0 1 -4.2,-6.9 23.4,23.4 0 0 1 -1.5,-8.300002 z m 5.7,7.300002 a 30.8,30.8 0 0 0 3.199996,4.8 24.6,24.6 0 0 0 4.1,3.8 18.9,18.9 0 0 0 4.9,2.5 18.1,18.1 0 0 0 5.8,0.9 14.3,14.3 0 0 0 5.999997,-1.2 12.5,12.5 0 0 0 4.5,-3.3 16.9,16.9 0 0 0 2.8,-4.9 19.8,19.8 0 0 0 0.9,-6 28.8,28.8 0 0 0 -0.6,-5.899998 27.3,27.3 0 0 0 -1.9,-5.7 30.1,30.1 0 0 0 -3.2,-5 16.4,16.4 0 0 0 -4.3,-4 13.2,13.2 0 0 0 -4.699997,-2.2 21.2,21.2 0 0 0 -5.2,-0.6 17,17 0 0 0 -6.1,1.1 13.6,13.6 0 0 0 -4.6,3.2 16.6,16.6 0 0 0 -2.899996,4.8 19.9,19.9 0 0 0 -1,6 38.6,38.6 0 0 0 0.5,6.099996 21.4,21.4 0 0 0 1.8,5.600002 z"
           fill="#143642"
           id="svg_2"
           style="fill:#ffffff;fill-opacity:1" />
        <path
           d="M 126.99749,76.921002 V 112.721 c 0,2.4 1,3.6 3.1,3.6 h 3 a 2.8,2.8 0 0 0 2.1,-0.7 5.2,5.2 0 0 0 1.3,-2.4 l 4.2,-11.6 h 0.1 l -1.6,16.3 -3.5,-0.6 h -16.7 l 4.2,-1.9 V 76.921002 l -4.2,-1.8 v -0.2 h 12.2 v 0.2 z"
           fill="#143642"
           id="svg_3"
           style="fill:#ffffff;fill-opacity:1" />
        <path
           d="m 163.29749,74.321002 a 21.7,21.7 0 0 1 8.4,1.5 37.2,37.2 0 0 1 8.6,5.8 v 13.8 h -0.2 a 47.4,47.4 0 0 0 -2.7,-8.9 16.2,16.2 0 0 0 -4,-5.8 15.5,15.5 0 0 0 -11.1,-4.7 14.5,14.5 0 0 0 -13,7.6 17.7,17.7 0 0 0 -2.2,9.2 28.4,28.4 0 0 0 0.5,5.799996 23.7,23.7 0 0 0 1.8,5.500002 20.7,20.7 0 0 0 3.1,4.8 16.2,16.2 0 0 0 4.5,3.6 26.5,26.5 0 0 0 4.7,2 19.8,19.8 0 0 0 5.2,0.7 16.7,16.7 0 0 0 7.6,-1.6 16.1,16.1 0 0 0 5.8,-5.1 h 0.8 a 20.4,20.4 0 0 1 -3.1,4 16.8,16.8 0 0 1 -4,3 18.3,18.3 0 0 1 -4.6,1.8 22.8,22.8 0 0 1 -13.6,-1 19.6,19.6 0 0 1 -6.6,-4.6 22,22 0 0 1 -4.2,-6.9 23.7,23.7 0 0 1 -1.5,-8.500002 23.4,23.4 0 0 1 1.5,-8.299996 20.3,20.3 0 0 1 4,-7 19.8,19.8 0 0 1 6.2,-4.9 17.9,17.9 0 0 1 8.1,-1.8 z"
           fill="#143642"
           id="svg_4"
           style="fill:#ffffff;fill-opacity:1" />
        <path
           d="m 205.49749,86.721002 h -0.2 l -4,-7.9 a 7.6,7.6 0 0 0 -0.7,-1.3 2.4,2.4 0 0 0 -0.8,-0.9 3.1,3.1 0 0 0 -1,-0.5 l -1.6,-0.2 h -5.8 v 18.8 h 5.3 a 5.3,5.3 0 0 0 2.8,-0.6 11.1,11.1 0 0 0 1.9,-2.2 l 1.2,-2.7 h 0.2 V 101.321 h -0.2 l -1.2,-2.700002 a 6.8,6.8 0 0 0 -2,-2.1 4.1,4.1 0 0 0 -2.7,-0.699996 h -5.3 V 112.521 a 5.3,5.3 0 0 0 0.5,2.6 2.2,2.2 0 0 0 2.2,1.2 h 3.8 a 3.4,3.4 0 0 0 2.5,-0.8 8.2,8.2 0 0 0 1.3,-2.3 l 4.3,-10 h 0.2 l -1.9,14.6 -3.9,-0.6 h -17 l 4.2,-1.9 V 76.921002 l -4.2,-1.8 v -0.2 h 16.6 l 3.9,-0.6 z"
           fill="#143642"
           id="svg_5"
           style="fill:#ffffff;fill-opacity:1" />
        <path
           d="m 245.68574,106.1867 13.8,-24.199997 a 9.3,9.3 0 0 0 1.7,-4.2 1.7,1.7 0 0 0 -0.8,-1.6 l -3.1,-1.2 v -0.2 h 12.4 c 3.8,0 6.6,1.1 8.3,3.2 1.7,2.1 2.6,5 2.6,8.7 a 13.1,13.1 0 0 1 -1.5,6.1 9.6,9.6 0 0 1 -4.6,4.300005 23.5,23.5 0 0 1 1,2.7 c 0.4,1.200002 0.8,2.400002 1.4,3.900002 0.6,1.5 1.1,2.79999 1.7,4.39999 a 40.8,40.8 0 0 0 1.9,4.2 27.2,27.2 0 0 0 2,3.5 6.5,6.5 0 0 0 1.8,2.1 v 0.2 a 12.8,12.8 0 0 1 -3.1,-1.5 17,17 0 0 1 -2.4,-2.2 16.4,16.4 0 0 1 -2,-2.6 l -1.7,-3 c -1.2,-2.6 -2.7,-6.09999 -4.4,-10.499992 a 8,8 0 0 1 -3,-0.6 6,6 0 0 1 -2.3,-1.900005 V 115.7867 l 5.3,1.3 v 0.2 h -13.4 v -0.2 l 4.2,-1.3 v -11.69999 h -13.4 l -1.1,1.9 a 12.8,12.8 0 0 0 -2,5.89999 6,6 0 0 0 0.7,3 6.2,6.2 0 0 0 2.9,2.1 v 0.3 h -12 v -0.3 a 23.1,23.1 0 0 0 5.1,-4.8 48.1,48.1 0 0 0 4,-6 z m 15.8,-25.699997 -12.9,22.600007 h 12.9 z m 9,16.800005 a 4.8,4.8 0 0 0 4.4,-2.900005 l 0.7,-1.4 a 7.5,7.5 0 0 0 0.5,-1.6 5.8,5.8 0 0 0 0.3,-1.9 15.5,15.5 0 0 0 0.1,-2.3 c 0,-7.6 -2.2,-11.3 -6.7,-11.3 h -4.5 v 13.7 a 12.3,12.3 0 0 0 0.2,2.7 10.3,10.3 0 0 0 0.7,2.5 5.8,5.8 0 0 0 1.7,1.800005 4,4 0 0 0 2.6,0.7 z"
           fill="#143642"
           id="svg_6"
           style="fill:#ffffff;fill-opacity:1" />
        <path
           d="m 301.58574,79.386703 h -0.2 V 106.9867 a 20.6,20.6 0 0 0 0.3,3.9 8.4,8.4 0 0 0 1.1,2.7 6.7,6.7 0 0 0 2.2,1.9 28.4,28.4 0 0 0 3.4,1.5 v 0.3 h -12 v -0.3 a 9.4,9.4 0 0 0 3.1,-4.1 13.6,13.6 0 0 0 0.9,-5.1 V 76.286703 l -4.6,-1.3 v -0.2 h 7.5 l 15.4,32.599997 h 0.3 V 85.086703 a 22.5,22.5 0 0 0 -0.3,-4 6.8,6.8 0 0 0 -1.1,-2.6 5.5,5.5 0 0 0 -2.1,-1.9 24.4,24.4 0 0 0 -3.5,-1.5 v -0.3 h 12 v 0.3 a 9.9,9.9 0 0 0 -3,4.1 11.9,11.9 0 0 0 -1,5.1 V 117.8867 h -0.4 z"
           fill="#143642"
           id="svg_7"
           style="fill:#ffffff;fill-opacity:1" />
        <path
           d="M 334.98574,76.286703 V 115.7867 l 4.2,1.3 v 0.2 h -12.2 v -0.2 l 4.2,-1.3 V 76.286703 l -4.2,-1.3 v -0.2 h 12.2 v 0.2 z"
           fill="#143642"
           id="svg_8"
           style="fill:#ffffff;fill-opacity:1" />
        <path
           d="m 363.88574,86.586703 h -0.1 l -4,-8 -0.8,-1.3 -0.7,-0.9 -1.1,-0.5 h -7.4 v 18.8 h 5.4 a 4.1,4.1 0 0 0 2.7,-0.7 8,8 0 0 0 1.9,-2.1 l 1.3,-2.8 h 0.1 v 12.200007 h -0.1 l -1.3,-2.800002 a 7.8,7.8 0 0 0 -1.9,-2.1 4.5,4.5 0 0 0 -2.7,-0.700005 h -5.4 V 112.4867 a 7.5,7.5 0 0 0 0.5,2.6 2.3,2.3 0 0 0 2.3,1.2 h 3.8 a 3,3 0 0 0 2.4,-0.9 5.6,5.6 0 0 0 1.3,-2.3 l 4.3,-9.89999 h 0.3 l -2,14.59999 -3.9,-0.5 h -17 v -0.2 l 4.2,-1.9 V 76.886703 l -4.2,-1.9 v -0.2 h 16.6 l 3.9,-0.5 z"
           fill="#143642"
           id="svg_9"
           style="fill:#ffffff;fill-opacity:1" />
        <path
           d="m 373.38574,79.386703 h -0.1 V 106.9867 a 20.6,20.6 0 0 0 0.3,3.9 6.7,6.7 0 0 0 1.1,2.7 5.5,5.5 0 0 0 2.1,1.9 24.4,24.4 0 0 0 3.5,1.5 v 0.3 h -12.1 v -0.3 a 9.4,9.4 0 0 0 3.1,-4.1 13.6,13.6 0 0 0 0.9,-5.1 V 76.286703 l -4.5,-1.3 v -0.2 h 7.4 l 15.5,32.599997 h 0.2 V 85.086703 a 21.5,21.5 0 0 0 -0.4,-4 6.7,6.7 0 0 0 -1,-2.6 5.9,5.9 0 0 0 -2.2,-1.9 20.3,20.3 0 0 0 -3.5,-1.5 v -0.3 h 12.1 v 0.3 a 10.2,10.2 0 0 0 -3.1,4.1 13.6,13.6 0 0 0 -0.9,5.1 V 117.8867 h -0.5 z"
           fill="#143642"
           id="svg_10"
           style="fill:#ffffff;fill-opacity:1" />
        <path
           d="m 445.28574,103.18671 -4.3,9.89999 a 5.6,5.6 0 0 1 -1.3,2.3 3,3 0 0 1 -2.4,0.9 h -3.8 a 2.3,2.3 0 0 1 -2.3,-1.2 7.5,7.5 0 0 1 -0.5,-2.6 V 95.686703 h 5.4 a 4.5,4.5 0 0 1 2.7,0.700005 7.8,7.8 0 0 1 1.9,2.1 l 1.3,2.800002 h 0.1 V 89.086703 h -0.1 l -1.3,2.8 a 8,8 0 0 1 -1.9,2.1 4.1,4.1 0 0 1 -2.7,0.7 h -5.4 v -18.8 h 7.4 l 1,0.5 a 3.4,3.4 0 0 1 0.8,0.9 c 0.2,0.4 0.5,0.8 0.7,1.3 l 4.1,8 h 0.1 l -1.6,-12.3 -3.9,0.5 h -37 l -3.6,-0.5 -1.2,15.1 h 0.2 l 3.8,-10.8 a 4.7,4.7 0 0 1 1,-2 2.2,2.2 0 0 1 1.9,-0.7 h 6 V 115.7867 l -4.2,1.3 v 0.2 h 12.2 v -0.2 l -4.2,-1.3 V 75.886703 h 8 c 2.9,0 4.7,5.6 4.7,13.5 v 0 25.799997 l -4.2,1.9 v 0.2 h 17 l 3.9,0.5 2,-14.59999 z"
           fill="#143642"
           id="svg_11"
           style="fill:#ffffff;fill-opacity:1" />
        <path
           d="m 232.08574,96.186708 a 4.8,4.8 0 0 0 2.7,-0.700005 7,7 0 0 0 1.9,-2.2 l 1.3,-2.7 h 0.2 v 12.100007 h -0.2 l -1.3,-2.700002 a 7.8,7.8 0 0 0 -1.9,-2.1 4.5,4.5 0 0 0 -2.7,-0.7 h -5.3 V 115.1867 l 5.4,1.9 v 0.2 h -13.4 v -0.2 l 4.2,-1.9 V 76.886703 l -4.2,-1.9 v -0.2 h 16.6 l 3.9,-0.5 1.7,12.3 h -0.2 l -4,-8 -0.7,-1.3 -0.8,-0.9 a 3.1,3.1 0 0 0 -1,-0.5 h -7.5 v 20.300005 z"
           fill="#143642"
           id="svg_12"
           style="fill:#ffffff;fill-opacity:1" />
        <path
           d="m 249.37596,45.5 a 20.8,20.8 0 1 1 20.7,-20.8 20.8,20.8 0 0 1 -20.7,20.8 z m 0,-40.8 a 20.1,20.1 0 1 0 20,20 20.1,20.1 0 0 0 -20,-20 z"
           fill="#143642"
           id="svg_13"
           style="fill:#ffffff;fill-opacity:1" />
        <path
           d="m 254.47596,44.6 h -0.7 v -8.7 c 0,-7.5 -2.5,-11.4 -4.7,-14 a 10.8,10.8 0 0 0 -8.5,-4 10.4,10.4 0 0 0 -10.4,10.4 9.6,9.6 0 0 0 0.7,4 l -0.7,0.3 a 11.1,11.1 0 0 1 -0.7,-4.3 11.1,11.1 0 0 1 11.1,-11.1 11.9,11.9 0 0 1 9.1,4.2 c 2,2.5 4.8,6.7 4.8,14.5 z"
           fill="#143642"
           id="svg_14"
           style="fill:#ffffff;fill-opacity:1" />
        <path
           d="m 249.67596,21.6 h -0.7 c 0,-10.3 -0.9,-13.4 -3.3,-16.8 l 0.6,-0.4 c 2.4,3.6 3.4,6.7 3.4,17.2 z"
           fill="#143642"
           id="svg_15"
           style="fill:#ffffff;fill-opacity:1" />
        <path
           d="m 249.67596,21.6 h -0.7 c 0,-8 -7.6,-12.9 -10.8,-13.6 l 0.2,-0.7 c 3.3,0.7 11.3,5.9 11.3,14.3 z"
           fill="#143642"
           id="svg_16"
           style="fill:#ffffff;fill-opacity:1" />
        <path
           d="m 249.67596,21.4 h -0.7 c 0,-1.9 -4.5,-7.7 -12.7,-7.7 a 13.5,13.5 0 0 0 -4.1,0.6 l -0.2,-0.7 a 14.9,14.9 0 0 1 4.3,-0.6 c 8.8,0 13.4,6.3 13.4,8.4 z"
           fill="#143642"
           id="svg_17"
           style="fill:#ffffff;fill-opacity:1" />
        <path
           d="m 244.97596,44.6 h -0.7 v -8.7 c 0,-7.8 2.7,-12 4.8,-14.5 a 11.7,11.7 0 0 1 9.1,-4.2 11.1,11.1 0 0 1 11.1,11.1 11.1,11.1 0 0 1 -0.7,4.3 l -0.7,-0.3 a 9.6,9.6 0 0 0 0.7,-4 10.4,10.4 0 0 0 -10.4,-10.4 11,11 0 0 0 -8.6,4 c -2.1,2.6 -4.6,6.5 -4.6,14 z"
           fill="#143642"
           id="svg_18"
           style="fill:#ffffff;fill-opacity:1" />
        <path
           d="m 249.67596,21.6 h -0.7 c 0,-10.5 1,-13.6 3.5,-17.2 l 0.5,0.4 c -2.3,3.4 -3.3,6.5 -3.3,16.8 z"
           fill="#143642"
           id="svg_19"
           style="fill:#ffffff;fill-opacity:1" />
        <path
           d="m 249.67596,21.6 h -0.7 c 0,-8.4 8,-13.6 11.4,-14.3 V 8 c -3,0.7 -10.7,5.6 -10.7,13.6 z"
           fill="#143642"
           id="svg_20"
           style="fill:#ffffff;fill-opacity:1" />
        <path
           d="m 249.67596,21.4 h -0.7 c 0,-2.1 4.6,-8.4 13.4,-8.4 a 15.6,15.6 0 0 1 4.4,0.6 l -0.2,0.7 a 14.2,14.2 0 0 0 -4.2,-0.6 c -8.2,0 -12.7,5.8 -12.7,7.7 z"
           fill="#143642"
           id="svg_21"
           style="fill:#ffffff;fill-opacity:1" />
        <path
           d="m 249.37596,49.5 a 24.8,24.8 0 1 1 24.7,-24.8 24.8,24.8 0 0 1 -24.7,24.8 z m 0,-48.1 a 23.4,23.4 0 1 0 23.3,23.3 23.4,23.4 0 0 0 -23.3,-23.3 z"
           fill="#143642"
           id="svg_22"
           style="fill:#ffffff;fill-opacity:1" />
        <path
           d="m 254.47596,44.6 h -0.7 c 0,-1.5 -2.5,-2.2 -4.8,-3 -2.3,-0.8 -4.7,-1.5 -4.7,-3 h 0.7 c 0,1 2.1,1.7 4.2,2.4 2.1,0.7 5.3,1.6 5.3,3.6 z"
           fill="#143642"
           id="svg_23"
           style="fill:#ffffff;fill-opacity:1" />
        <path
           d="m 254.47596,39.6 h -0.7 c 0,-1.4 -2.4,-2.2 -4.8,-2.9 -2.4,-0.7 -4.6,-1.5 -4.6,-3.1 h 0.7 c 0,1.1 2.1,1.8 4.1,2.4 2,0.6 5.3,1.7 5.3,3.6 z"
           fill="#143642"
           id="svg_24"
           style="fill:#ffffff;fill-opacity:1" />
        <path
           d="m 254.37596,34.7 h -0.6 c 0,-1.5 -2.2,-2.2 -4.3,-3 -2.1,-0.8 -4.2,-1.5 -4.2,-3 h 0.6 c 0,1.1 2,1.7 3.8,2.4 1.8,0.7 4.7,1.6 4.7,3.6 z"
           fill="#143642"
           id="svg_25"
           style="fill:#ffffff;fill-opacity:1" />
        <path
           d="m 253.07596,29.8 c -0.3,-1.4 -1.6,-2.2 -2.9,-2.9 -1.3,-0.7 -2.7,-1.6 -2.7,-3.2 h 0.7 c 0,1.2 1.1,1.9 2.4,2.6 1.3,0.7 2.8,1.6 3.2,3.3 z"
           fill="#143642"
           id="svg_26"
           style="fill:#ffffff;fill-opacity:1" />
        <path
           d="m 244.97596,44.6 h -0.7 c 0,-2 2.7,-2.8 5.3,-3.6 2.6,-0.8 4.2,-1.4 4.2,-2.4 h 0.7 c 0,1.5 -2.3,2.3 -4.7,3 -2.4,0.7 -4.8,1.5 -4.8,3 z"
           fill="#143642"
           id="svg_27"
           style="fill:#ffffff;fill-opacity:1" />
        <path
           d="m 244.97596,39.6 h -0.7 c 0,-1.9 2.7,-2.8 5.2,-3.6 2.5,-0.8 4.2,-1.3 4.2,-2.4 h 0.7 c 0,1.6 -2.3,2.3 -4.7,3.1 -2.4,0.8 -4.7,1.5 -4.7,2.9 z"
           fill="#143642"
           id="svg_28"
           style="fill:#ffffff;fill-opacity:1" />
        <path
           d="m 244.97596,34.7 h -0.7 c 0,-2 2.4,-2.8 4.8,-3.6 2.4,-0.8 3.7,-1.3 3.7,-2.4 h 0.7 c 0,1.5 -2,2.3 -4.2,3 -2.2,0.7 -4.3,1.5 -4.3,3 z"
           fill="#143642"
           id="svg_29"
           style="fill:#ffffff;fill-opacity:1" />
        <path
           d="m 245.57596,29.8 -0.6,-0.2 c 0.4,-1.7 1.9,-2.5 3.2,-3.3 1.3,-0.8 2.4,-1.4 2.4,-2.6 h 0.7 c 0,1.6 -1.4,2.4 -2.7,3.2 -1.3,0.8 -2.6,1.5 -3,2.9 z"
           fill="#143642"
           id="svg_30"
           style="fill:#ffffff;fill-opacity:1" />
        <path
           d="m 192.94239,145.5826 -1.7,-2.7 h -2.1 v 2.7 h -1 v -7.2 h 2.8 c 1.8,0 2.8,0.8 2.8,2.2 a 2.6,2.6 0 0 1 -0.5,1.5 1.5,1.5 0 0 1 -0.8,0.5 h -0.2 l 1.9,2.9 z m -3.8,-3.6 h 1.8 c 1.2,0 1.8,-0.5 1.8,-1.4 0,-0.9 -0.6,-1.4 -1.8,-1.4 h -1.8 z"
           fill="#143642"
           id="svg_31"
           style="fill:#ffffff;fill-opacity:1" />
        <path
           d="m 200.84239,145.5826 v -7.2 h 5.5 v 0.8 h -4.5 v 2.2 h 3.8 v 0.9 h -3.8 v 2.4 h 4.5 v 0.9 z"
           fill="#143642"
           id="svg_32"
           style="fill:#ffffff;fill-opacity:1" />
        <path
           d="m 217.04239,142.5826 -2,-0.4 -0.9,-0.3 a 1.1,1.1 0 0 1 -0.7,-0.6 1.7,1.7 0 0 1 -0.3,-1 1.6,1.6 0 0 1 0.8,-1.5 3,3 0 0 1 2,-0.5 3.9,3.9 0 0 1 2,0.5 1.9,1.9 0 0 1 0.8,1.6 v 0.2 h -1 v -0.2 q 0,-1.2 -1.8,-1.2 c -1.2,0 -1.8,0.3 -1.8,1.1 0,0.8 0.4,0.8 0.9,1 l 2,0.4 a 2.5,2.5 0 0 1 1.6,0.9 1.7,1.7 0 0 1 0.3,1 1.6,1.6 0 0 1 -0.8,1.5 4.3,4.3 0 0 1 -4.4,0 1.8,1.8 0 0 1 -0.8,-1.5 v -0.4 h 1 v 0.4 c 0,0.8 0.6,1.2 2,1.2 1.4,0 2,-0.4 2,-1.2 0,-0.8 -0.4,-0.8 -0.9,-1 z"
           fill="#143642"
           id="svg_33"
           style="fill:#ffffff;fill-opacity:1" />
        <path
           d="m 225.14239,139.1826 v -0.8 h 6.1 v 0.8 h -2.6 v 6.4 h -0.9 v -6.4 z"
           fill="#143642"
           id="svg_34"
           style="fill:#ffffff;fill-opacity:1" />
        <path
           d="m 240.44239,138.3826 3,7.2 h -1.1 l -0.6,-1.6 h -3.8 l -0.7,1.6 h -1 l 2.9,-7.2 z m 0.9,4.7 -1.5,-3.9 h -0.1 l -1.5,3.9 z"
           fill="#143642"
           id="svg_35"
           style="fill:#ffffff;fill-opacity:1" />
        <path
           d="m 250.64239,138.3826 v 4.7 a 1.5,1.5 0 0 0 0.7,1.3 3,3 0 0 0 3,0 1.6,1.6 0 0 0 0.6,-1.3 v -4.7 h 1 v 4.7 a 2.2,2.2 0 0 1 -0.9,1.9 3.2,3.2 0 0 1 -2.2,0.7 3.1,3.1 0 0 1 -2.2,-0.7 2.2,2.2 0 0 1 -0.9,-1.9 v -4.7 z"
           fill="#143642"
           id="svg_36"
           style="fill:#ffffff;fill-opacity:1" />
        <path
           d="m 267.84239,145.5826 -1.7,-2.7 h -2.1 v 2.7 h -1 v -7.2 h 2.8 c 1.8,0 2.8,0.8 2.8,2.2 a 2.6,2.6 0 0 1 -0.5,1.5 1.5,1.5 0 0 1 -0.8,0.5 h -0.2 l 1.9,2.9 z m -3.8,-3.6 h 1.8 c 1.2,0 1.8,-0.5 1.8,-1.4 0,-0.9 -0.6,-1.4 -1.8,-1.4 h -1.8 z"
           fill="#143642"
           id="svg_37"
           style="fill:#ffffff;fill-opacity:1" />
        <path
           d="m 279.24239,138.3826 2.9,7.2 h -1 l -0.6,-1.6 h -3.9 l -0.6,1.6 h -1 l 2.9,-7.2 z m 0.9,4.7 -1.5,-3.9 h -0.1 l -1.5,3.9 z"
           fill="#143642"
           id="svg_38"
           style="fill:#ffffff;fill-opacity:1" />
        <path
           d="m 293.44239,145.5826 -3.8,-6.1 h -0.1 v 6.1 h -0.9 v -7.2 h 1.4 l 3.9,6.1 v 0 -6.1 h 1 v 7.2 z"
           fill="#143642"
           id="svg_39"
           style="fill:#ffffff;fill-opacity:1" />
        <path
           d="m 301.34239,139.1826 v -0.8 h 6.2 v 0.8 h -2.6 v 6.4 h -1 v -6.4 z"
           fill="#143642"
           id="svg_40"
           style="fill:#ffffff;fill-opacity:1" />
      </g>
    </g>
  </g>
</svg>
